<svg width="113" height="109" viewBox="0 0 113 109" fill="none" xmlns="http://www.w3.org/2000/svg">
<path d="M54.7093 81.2353C69.9951 81.2353 82.3866 69.2515 82.3866 54.4688C82.3866 39.6861 69.9951 27.7023 54.7093 27.7023C39.4236 27.7023 27.0321 39.6861 27.0321 54.4688C27.0321 69.2515 39.4236 81.2353 54.7093 81.2353Z" fill="#FFD02A"/>
<path d="M57.9352 27.8895C71.677 29.4493 82.3866 40.7424 82.3866 54.4688C82.3866 68.1952 71.677 79.4883 57.9352 81.0481C44.1933 79.4883 33.4837 68.1952 33.4837 54.4688C33.5482 40.7424 44.1933 29.4493 57.9352 27.8895Z" fill="#FFD02A"/>
<path d="M73.2253 42.6766C73.2253 42.6766 73.2253 42.6142 73.2253 42.6766C74.7092 45.1099 75.677 47.9176 76.064 50.7876C76.1931 51.6611 76.1931 52.5346 76.2576 53.4705C76.2576 56.2158 75.6769 58.8987 74.7092 61.3944C75.6769 58.8987 76.1931 56.2158 76.2576 53.5329C76.1931 49.6022 75.1608 45.921 73.2253 42.6766Z" fill="#FFD02A"/>
<path d="M71.9351 66.261C72.9673 64.8884 73.806 63.391 74.5157 61.8935C73.806 63.391 72.9673 64.8884 71.9351 66.261Z" fill="#FFD02A"/>
<path d="M53.9343 2.62049C53.9343 1.18546 55.1601 0 56.6439 0C58.1278 0 59.3536 1.18546 59.3536 2.62049V17.7195C59.3536 19.1546 58.1278 20.34 56.6439 20.34C55.1601 20.34 53.9343 19.1546 53.9343 17.7195V2.62049Z" fill="#FFD02A"/>
<path d="M53.29 2.62049C53.29 1.18546 54.5158 0 55.9996 0C57.4835 0 58.7093 1.18546 58.7093 2.62049V17.7195C58.7093 19.1546 57.4835 20.34 55.9996 20.34C54.5158 20.34 53.29 19.1546 53.29 17.7195V2.62049Z" fill="#FFD02A"/>
<path d="M53.9343 91.2181C53.9343 89.7831 55.1601 88.5976 56.6439 88.5976C58.1278 88.5976 59.3536 89.7831 59.3536 91.2181V106.317C59.3536 107.752 58.1278 108.938 56.6439 108.938C55.1601 108.938 53.9343 107.752 53.9343 106.317V91.2181Z" fill="#FFD02A"/>
<path d="M53.29 91.2181C53.29 89.7831 54.5158 88.5976 55.9996 88.5976C57.4835 88.5976 58.7093 89.7831 58.7093 91.2181V106.317C58.7093 107.752 57.4835 108.938 55.9996 108.938C54.5158 108.938 53.29 107.752 53.29 106.317V91.2181Z" fill="#FFD02A"/>
<path d="M2.70966 56.7773C1.2258 56.7773 0 55.5919 0 54.1568C0 52.7218 1.2258 51.5363 2.70966 51.5363H18.3225C19.8063 51.5363 21.0321 52.7218 21.0321 54.1568C21.0321 55.5919 19.8063 56.7773 18.3225 56.7773H2.70966Z" fill="#FFD02A"/>
<path d="M2.70966 57.4013C1.2258 57.4013 0 56.2158 0 54.7808C0 53.3457 1.2258 52.1603 2.70966 52.1603H18.3225C19.8063 52.1603 21.0321 53.3457 21.0321 54.7808C21.0321 56.2158 19.8063 57.4013 18.3225 57.4013H2.70966Z" fill="#FFD02A"/>
<path d="M94.3865 56.7773C92.9026 56.7773 91.6768 55.5919 91.6768 54.1568C91.6768 52.7218 92.9026 51.5363 94.3865 51.5363H109.999C111.483 51.5363 112.709 52.7218 112.709 54.1568C112.709 55.5919 111.483 56.7773 109.999 56.7773H94.3865Z" fill="#FFD02A"/>
<path d="M94.3865 57.4013C92.9026 57.4013 91.6768 56.2158 91.6768 54.7808C91.6768 53.3457 92.9026 52.1603 94.3865 52.1603H109.999C111.483 52.1603 112.709 53.3457 112.709 54.7808C112.709 56.2158 111.483 57.4013 109.999 57.4013H94.3865Z" fill="#FFD02A"/>
<path d="M20.1289 92.7779C19.0321 93.8386 17.3547 93.8386 16.2579 92.7779C15.1612 91.7172 15.1612 90.095 16.2579 89.0343L27.2901 78.3652C28.3869 77.3045 30.0643 77.3045 31.1611 78.3652C32.2578 79.4259 32.2578 81.0481 31.1611 82.1088L20.1289 92.7779Z" fill="#FFD02A"/>
<path d="M20.5799 93.2147C19.4832 94.2753 17.8058 94.2753 16.709 93.2147C15.6122 92.154 15.6122 90.5318 16.709 89.4711L27.7412 78.802C28.8379 77.7413 30.5153 77.7413 31.6121 78.802C32.7089 79.8626 32.7089 81.4848 31.6121 82.5455L20.5799 93.2147Z" fill="#FFD02A"/>
<path d="M84.9672 30.0733C83.8704 31.1339 82.193 31.1339 81.0963 30.0733C79.9995 29.0126 79.9995 27.3904 81.0963 26.3297L92.1285 15.6606C93.2252 14.5999 94.9026 14.5999 95.9994 15.6606C97.0962 16.7212 97.0962 18.3434 95.9994 19.4041L84.9672 30.0733Z" fill="#FFD02A"/>
<path d="M85.4183 30.51C84.3215 31.5707 82.6441 31.5707 81.5473 30.51C80.4505 29.4493 80.4505 27.8271 81.5473 26.7665L92.5795 16.0973C93.6763 15.0366 95.3537 15.0366 96.4505 16.0973C97.5472 17.158 97.5472 18.7802 96.4505 19.8409L85.4183 30.51Z" fill="#FFD02A"/>
<path d="M95.9349 89.4711C97.0316 90.5318 97.0316 92.154 95.9349 93.2147C94.8381 94.2753 93.1607 94.2753 92.0639 93.2147L81.0317 82.5455C79.935 81.4848 79.935 79.8626 81.0317 78.802C82.1285 77.7413 83.8059 77.7413 84.9027 78.802L95.9349 89.4711Z" fill="#FFD02A"/>
<path d="M96.4503 89.0343C97.5471 90.095 97.5471 91.7172 96.4503 92.7779C95.3536 93.8386 93.6762 93.8386 92.5794 92.7779L81.5472 82.1088C80.4504 81.0481 80.4504 79.4259 81.5472 78.3652C82.644 77.3045 84.3214 77.3045 85.4181 78.3652L96.4503 89.0343Z" fill="#FFD02A"/>
<path d="M31.1611 26.7665C32.2578 27.8271 32.2578 29.4493 31.1611 30.51C30.0643 31.5707 28.3869 31.5707 27.2901 30.51L16.2579 19.8409C15.1612 18.7802 15.1612 17.158 16.2579 16.0973C17.3547 15.0366 19.0321 15.0366 20.1289 16.0973L31.1611 26.7665Z" fill="#FFD02A"/>
<path d="M31.6121 26.3297C32.7089 27.3904 32.7089 29.0126 31.6121 30.0733C30.5153 31.1339 28.8379 31.1339 27.7412 30.0733L16.709 19.4041C15.6122 18.3434 15.6122 16.7212 16.709 15.6606C17.8058 14.5999 19.4832 14.5999 20.5799 15.6606L31.6121 26.3297Z" fill="#FFD02A"/>
</svg>
