<svg width="127" height="102" viewBox="0 0 127 102" fill="none" xmlns="http://www.w3.org/2000/svg">
<circle cx="89" cy="38" r="38" fill="#93A1B6"/>
<ellipse cx="93.8857" cy="32.0286" rx="30.9429" ry="29.8571" fill="#B7C5D5"/>
<circle cx="86.8285" cy="27.1429" r="2.17143" fill="#87919F"/>
<circle cx="78.6857" cy="41.8" r="3.8" fill="#93A1B6"/>
<ellipse cx="108.543" cy="13.5714" rx="6.51429" ry="3.8" transform="rotate(35.6053 108.543 13.5714)" fill="#93A1B6"/>
<ellipse cx="108.543" cy="13.5714" rx="6.51429" ry="3.8" transform="rotate(35.6053 108.543 13.5714)" fill="url(#paint0_linear_5:1030)"/>
<ellipse rx="5.5285" ry="4.17398" transform="matrix(-0.409491 -0.912314 -0.912314 0.409491 57.9251 31.5838)" fill="#93A1B6"/>
<ellipse rx="5.5285" ry="4.17398" transform="matrix(-0.409491 -0.912314 -0.912314 0.409491 57.9251 31.5838)" fill="url(#paint1_linear_5:1030)"/>
<ellipse cx="79.1374" cy="65.5107" rx="6.51429" ry="3.8" transform="rotate(24.0243 79.1374 65.5107)" fill="#93A1B6"/>
<ellipse cx="79.1374" cy="65.5107" rx="6.51429" ry="3.8" transform="rotate(24.0243 79.1374 65.5107)" fill="url(#paint2_linear_5:1030)"/>
<ellipse cx="109.372" cy="50.3153" rx="5.03432" ry="3.8" transform="rotate(-29.8378 109.372 50.3153)" fill="#93A1B6"/>
<ellipse cx="109.372" cy="50.3153" rx="5.03432" ry="3.8" transform="rotate(-29.8378 109.372 50.3153)" fill="url(#paint3_linear_5:1030)"/>
<ellipse cx="83.946" cy="9.22159" rx="3.45153" ry="2.60528" transform="rotate(-1.99563 83.946 9.22159)" fill="#93A1B6"/>
<ellipse cx="83.946" cy="9.22159" rx="3.45153" ry="2.60528" transform="rotate(-1.99563 83.946 9.22159)" fill="url(#paint4_linear_5:1030)"/>
<path d="M9.11974 54.1339C8.69561 52.3667 8.48355 50.5288 8.48355 48.6909C8.48355 36.1791 18.6626 26 31.1745 26C40.1519 26 47.8569 31.1602 51.5327 38.7239C52.3102 38.6532 53.0878 38.5825 53.8654 38.5825C66.3772 38.5825 76.5563 48.7616 76.5563 61.2734C76.5563 73.7853 66.3772 83.9643 53.8654 83.9643C44.888 83.9643 23.1867 83.9643 15.623 83.9643C6.99908 83.9643 0.000965691 76.9662 0.000965691 68.3423C-0.0697225 62.051 3.74744 56.608 9.11974 54.1339Z" fill="#476472"/>
<path d="M10.6042 68.3423C10.6042 62.051 14.3507 56.608 19.7937 54.1339C19.3696 52.3667 19.1575 50.5288 19.1575 48.6909C19.1575 38.017 26.5798 29.0396 36.5468 26.6362C43.1915 28.262 48.6345 32.7154 51.6034 38.7239C52.381 38.6532 53.1586 38.5825 53.9361 38.5825C66.4479 38.5825 76.627 48.7616 76.627 61.2734C76.627 73.7853 66.4479 83.9643 53.9361 83.9643C47.8569 83.9643 35.7692 83.9643 26.297 83.9643C17.5317 83.9643 10.6042 76.9662 10.6042 68.3423Z" fill="#678592"/>
<path d="M51.674 71.8767C51.2498 70.1095 51.0378 68.2716 51.0378 66.4337C51.0378 53.9218 61.2169 43.7427 73.7287 43.7427C82.7061 43.7427 90.4111 48.903 94.0869 56.4666C94.8645 56.3959 95.642 56.3253 96.4196 56.3253C108.931 56.3253 119.111 66.5043 119.111 79.0162C119.111 91.528 108.931 101.707 96.4196 101.707C87.4422 101.707 65.7409 101.707 58.1773 101.707C49.5533 101.707 42.5552 94.7089 42.5552 86.085C42.4845 79.7937 46.231 74.3508 51.674 71.8767Z" fill="#476472"/>
<path d="M53.0878 86.085C53.0878 79.7937 56.8342 74.3507 62.2772 71.8767C61.8531 70.1095 61.641 68.2715 61.641 66.4337C61.641 55.7597 69.0633 46.7823 79.0304 44.3789C85.675 46.0048 91.118 50.4581 94.0869 56.4666C94.8645 56.3959 95.6421 56.3252 96.4197 56.3252C108.931 56.3252 119.111 66.5043 119.111 79.0162C119.111 91.528 108.931 101.707 96.4197 101.707C90.3405 101.707 78.2528 101.707 68.7806 101.707C60.0859 101.707 53.0878 94.7089 53.0878 86.085Z" fill="#8BABBB"/>
<defs>
<linearGradient id="paint0_linear_5:1030" x1="108.543" y1="9.77143" x2="108.543" y2="17.3714" gradientUnits="userSpaceOnUse">
<stop stop-color="#4D6181"/>
<stop offset="1" stop-color="#A0A0A0" stop-opacity="0"/>
</linearGradient>
<linearGradient id="paint1_linear_5:1030" x1="5.5285" y1="0" x2="5.5285" y2="8.34797" gradientUnits="userSpaceOnUse">
<stop stop-color="#4D6181"/>
<stop offset="1" stop-color="white" stop-opacity="0"/>
</linearGradient>
<linearGradient id="paint2_linear_5:1030" x1="79.1374" y1="61.7107" x2="79.1374" y2="69.3107" gradientUnits="userSpaceOnUse">
<stop stop-color="#4D6181"/>
<stop offset="1" stop-color="white" stop-opacity="0"/>
</linearGradient>
<linearGradient id="paint3_linear_5:1030" x1="109.372" y1="46.5153" x2="109.372" y2="54.1153" gradientUnits="userSpaceOnUse">
<stop stop-color="#4D6181"/>
<stop offset="1" stop-color="#EAEAEA" stop-opacity="0"/>
</linearGradient>
<linearGradient id="paint4_linear_5:1030" x1="83.946" y1="6.61631" x2="83.946" y2="11.8269" gradientUnits="userSpaceOnUse">
<stop stop-color="#4D6181"/>
<stop offset="1" stop-color="#EAEAEA" stop-opacity="0"/>
</linearGradient>
</defs>
</svg>
