<svg width="120" height="76" viewBox="0 0 120 76" fill="none" xmlns="http://www.w3.org/2000/svg">
<path d="M9.11974 28.1339C8.69561 26.3667 8.48355 24.5288 8.48355 22.6909C8.48355 10.1791 18.6626 0 31.1745 0C40.1519 0 47.8569 5.16024 51.5327 12.7239C52.3102 12.6532 53.0878 12.5825 53.8654 12.5825C66.3772 12.5825 76.5563 22.7616 76.5563 35.2734C76.5563 47.7853 66.3772 57.9643 53.8654 57.9643C44.888 57.9643 23.1867 57.9643 15.623 57.9643C6.99908 57.9643 0.000965691 50.9662 0.000965691 42.3423C-0.0697225 36.051 3.74744 30.608 9.11974 28.1339Z" fill="#476472"/>
<path d="M10.6042 42.3423C10.6042 36.051 14.3507 30.608 19.7937 28.1339C19.3696 26.3667 19.1575 24.5288 19.1575 22.6909C19.1575 12.017 26.5798 3.0396 36.5468 0.6362C43.1915 2.26203 48.6345 6.71537 51.6034 12.7239C52.381 12.6532 53.1586 12.5825 53.9361 12.5825C66.4479 12.5825 76.627 22.7616 76.627 35.2734C76.627 47.7852 66.4479 57.9643 53.9361 57.9643C47.8569 57.9643 35.7692 57.9643 26.297 57.9643C17.5317 57.9643 10.6042 50.9662 10.6042 42.3423Z" fill="#678592"/>
<path d="M51.674 45.8767C51.2498 44.1095 51.0378 42.2716 51.0378 40.4337C51.0378 27.9218 61.2169 17.7427 73.7287 17.7427C82.7061 17.7427 90.4111 22.903 94.0869 30.4666C94.8645 30.3959 95.642 30.3253 96.4196 30.3253C108.931 30.3253 119.111 40.5043 119.111 53.0162C119.111 65.528 108.931 75.7071 96.4196 75.7071C87.4422 75.7071 65.7409 75.7071 58.1773 75.7071C49.5533 75.7071 42.5552 68.7089 42.5552 60.085C42.4845 53.7937 46.231 48.3508 51.674 45.8767Z" fill="#476472"/>
<path d="M53.0878 60.085C53.0878 53.7937 56.8342 48.3507 62.2772 45.8766C61.8531 44.1094 61.641 42.2715 61.641 40.4336C61.641 29.7597 69.0633 20.7823 79.0304 18.3789C85.675 20.0047 91.118 24.4581 94.0869 30.4666C94.8645 30.3959 95.6421 30.3252 96.4197 30.3252C108.931 30.3252 119.111 40.5043 119.111 53.0161C119.111 65.528 108.931 75.7071 96.4197 75.7071C90.3405 75.7071 78.2528 75.7071 68.7806 75.7071C60.0859 75.7071 53.0878 68.7089 53.0878 60.085Z" fill="#8BABBB"/>
</svg>
