<svg width="113" height="109" viewBox="0 0 113 109" fill="none" xmlns="http://www.w3.org/2000/svg">
<path d="M8.58612 26.4904C8.18677 24.8265 7.98707 23.096 7.98707 21.3654C7.98707 9.58449 17.5716 0 29.3525 0C37.8055 0 45.0604 4.8588 48.5215 11.9806C49.2536 11.914 49.9858 11.8475 50.7179 11.8475C62.4989 11.8475 72.0834 21.432 72.0834 33.2129C72.0834 44.9938 62.4989 54.5783 50.7179 54.5783C42.2649 54.5783 21.8314 54.5783 14.7095 54.5783C6.58936 54.5783 0 47.989 0 39.8688C0 33.8785 3.52764 28.7535 8.58612 26.4904Z" fill="#476472"/>
<path d="M9.98389 39.8688C9.98389 33.9451 13.5115 28.82 18.6365 26.4905C18.2372 24.8265 18.0375 23.096 18.0375 21.3655C18.0375 11.3151 25.0262 2.86206 34.411 0.59906C40.6676 2.12992 45.7926 6.32313 48.5881 11.9806C49.3202 11.9141 50.0524 11.8475 50.7845 11.8475C62.5655 11.8475 72.15 21.432 72.15 33.2129C72.15 44.9939 62.5655 54.5784 50.7845 54.5784C45.0605 54.5784 33.6789 54.5784 24.76 54.5784C16.5732 54.5118 9.98389 47.989 9.98389 39.8688Z" fill="#668592"/>
<path d="M48.6546 43.1302C48.2553 41.4662 48.0556 39.7357 48.0556 38.0052C48.0556 26.2242 57.6401 16.6397 69.421 16.6397C77.874 16.6397 85.1289 21.4985 88.59 28.6203C89.3221 28.5538 90.0543 28.4872 90.7864 28.4872C102.567 28.4872 112.152 38.0717 112.152 49.8526C112.152 61.6336 102.501 71.2181 90.7199 71.2181C82.2669 71.2181 61.8333 71.2181 54.7115 71.2181C46.5913 71.2181 40.002 64.6287 40.002 56.5085C40.002 50.5848 43.5296 45.4598 48.6546 43.1302Z" fill="#476472"/>
<path d="M50.0524 56.5086C50.0524 50.5848 53.58 45.4598 58.705 43.1302C58.3057 41.4662 58.106 39.7357 58.106 38.0052C58.106 27.9548 65.0947 19.5018 74.4795 17.2388C80.736 18.7697 85.8611 22.9629 88.6566 28.6204C89.3887 28.5538 90.1208 28.4873 90.853 28.4873C102.634 28.4873 112.218 38.0717 112.218 49.8527C112.218 61.6336 102.501 71.2181 90.7199 71.2181C84.9958 71.2181 73.6142 71.2181 64.6953 71.2181C56.5751 71.2181 50.0524 64.6288 50.0524 56.5086Z" fill="#8BABBB"/>
<path d="M49.531 100.948C49.531 96.5552 57.5181 82.9106 57.5181 82.9106C57.5181 82.9106 65.5052 96.4887 65.5052 100.948C65.5052 105.341 61.911 108.935 57.5181 108.935C53.0586 109.002 49.531 105.408 49.531 100.948Z" fill="#476472"/>
<path d="M60.846 88.9675C63.0425 93.1607 65.5051 98.4855 65.5051 100.948C65.5051 104.21 63.5749 106.938 60.846 108.203C58.1171 106.938 56.1869 104.143 56.1869 100.948C56.1869 98.4855 58.6496 93.2273 60.846 88.9675Z" fill="#8BABBB"/>
<path d="M25.8423 89.1037C25.8423 84.7109 33.8294 71.0663 33.8294 71.0663C33.8294 71.0663 41.8164 84.6443 41.8164 89.1037C41.8164 93.4966 38.2222 97.0908 33.8294 97.0908C29.3699 97.1574 25.8423 93.5632 25.8423 89.1037Z" fill="#476472"/>
<path d="M37.1573 77.1231C39.3537 81.3163 41.8164 86.641 41.8164 89.1037C41.8164 92.3651 39.8862 95.094 37.1573 96.3587C34.4284 95.094 32.4982 92.2985 32.4982 89.1037C32.4982 86.641 34.9608 81.3829 37.1573 77.1231Z" fill="#8BABBB"/>
</svg>
