<svg width="132" height="155" viewBox="0 0 132 155" fill="none" xmlns="http://www.w3.org/2000/svg">
<path d="M9.11974 69.0623C8.69561 67.2951 8.48355 65.4572 8.48355 63.6193C8.48355 51.1075 18.6626 40.9283 31.1745 40.9283C40.1519 40.9283 47.8569 46.0886 51.5327 53.6522C52.3102 53.5815 53.0878 53.5109 53.8654 53.5109C66.3772 53.5109 76.5563 63.69 76.5563 76.2018C76.5563 88.7136 66.3772 98.8927 53.8654 98.8927C44.888 98.8927 23.1867 98.8927 15.623 98.8927C6.99908 98.8927 0.000965691 91.8946 0.000965691 83.2706C-0.0697225 76.9794 3.74744 71.5364 9.11974 69.0623Z" fill="#476472"/>
<path d="M10.6042 83.2706C10.6042 76.9794 14.3507 71.5364 19.7937 69.0623C19.3695 67.2951 19.1574 65.4572 19.1574 63.6193C19.1574 52.9454 26.5797 43.968 36.5468 41.5646C43.1914 43.1904 48.6345 47.6437 51.6034 53.6522C52.3809 53.5816 53.1585 53.5109 53.9361 53.5109C66.4479 53.5109 76.627 63.69 76.627 76.2018C76.627 88.7136 66.4479 98.8927 53.9361 98.8927C47.8569 98.8927 35.7692 98.8927 26.297 98.8927C17.5316 98.8927 10.6042 91.8946 10.6042 83.2706Z" fill="#678592"/>
<path d="M86.7719 67.4198C98.6917 67.4198 108.355 57.4741 108.355 45.2055C108.355 32.9368 98.6917 22.9911 86.7719 22.9911C74.8522 22.9911 65.1893 32.9368 65.1893 45.2055C65.1893 57.4741 74.8522 67.4198 86.7719 67.4198Z" fill="#FFD02A"/>
<path d="M89.2875 23.1464C100.003 24.441 108.355 33.8135 108.355 45.2054C108.355 56.5974 100.003 65.9699 89.2875 67.2645C78.5716 65.9699 70.2203 56.5974 70.2203 45.2054C70.2706 33.8135 78.5716 24.441 89.2875 23.1464Z" fill="#FFD02A"/>
<path d="M101.211 35.4187C101.211 35.4187 101.211 35.3669 101.211 35.4187C102.368 37.4382 103.123 39.7684 103.424 42.1503C103.525 42.8753 103.525 43.6002 103.575 44.3769C103.575 46.6553 103.123 48.882 102.368 50.9532C103.123 48.882 103.525 46.6553 103.575 44.4287C103.525 41.1665 102.72 38.1114 101.211 35.4187Z" fill="#FFD02A"/>
<path d="M100.205 54.9922C101.009 53.853 101.664 52.6103 102.217 51.3675C101.664 52.6103 101.009 53.853 100.205 54.9922Z" fill="#FFD02A"/>
<path d="M86.1676 2.17483C86.1676 0.983852 87.1235 0 88.2806 0C89.4377 0 90.3936 0.983852 90.3936 2.17483V14.706C90.3936 15.897 89.4377 16.8808 88.2806 16.8808C87.1235 16.8808 86.1676 15.897 86.1676 14.706V2.17483Z" fill="#FFD02A"/>
<path d="M85.6652 2.17483C85.6652 0.983852 86.621 0 87.7782 0C88.9353 0 89.8911 0.983852 89.8911 2.17483V14.706C89.8911 15.897 88.9353 16.8808 87.7782 16.8808C86.621 16.8808 85.6652 15.897 85.6652 14.706V2.17483Z" fill="#FFD02A"/>
<path d="M86.1676 75.7049C86.1676 74.5139 87.1235 73.53 88.2806 73.53C89.4377 73.53 90.3936 74.5139 90.3936 75.7049V88.2361C90.3936 89.427 89.4377 90.4109 88.2806 90.4109C87.1235 90.4109 86.1676 89.427 86.1676 88.2361V75.7049Z" fill="#FFD02A"/>
<path d="M85.6652 75.7049C85.6652 74.5139 86.621 73.53 87.7782 73.53C88.9353 73.53 89.8911 74.5139 89.8911 75.7049V88.236C89.8911 89.427 88.9353 90.4109 87.7782 90.4109C86.621 90.4109 85.6652 89.427 85.6652 88.236V75.7049Z" fill="#FFD02A"/>
<path d="M46.2227 47.1214C45.0656 47.1214 44.1097 46.1375 44.1097 44.9466C44.1097 43.7556 45.0656 42.7717 46.2227 42.7717H58.3976C59.5547 42.7717 60.5106 43.7556 60.5106 44.9466C60.5106 46.1375 59.5547 47.1214 58.3976 47.1214H46.2227Z" fill="#FFD02A"/>
<path d="M46.2227 47.6392C45.0656 47.6392 44.1097 46.6554 44.1097 45.4644C44.1097 44.2734 45.0656 43.2896 46.2227 43.2896H58.3976C59.5547 43.2896 60.5106 44.2734 60.5106 45.4644C60.5106 46.6554 59.5547 47.6392 58.3976 47.6392H46.2227Z" fill="#FFD02A"/>
<path d="M117.712 47.1214C116.555 47.1214 115.599 46.1375 115.599 44.9466C115.599 43.7556 116.555 42.7717 117.712 42.7717H129.887C131.044 42.7717 132 43.7556 132 44.9466C132 46.1375 131.044 47.1214 129.887 47.1214H117.712Z" fill="#FFD02A"/>
<path d="M117.712 47.6392C116.555 47.6392 115.599 46.6554 115.599 45.4644C115.599 44.2734 116.555 43.2896 117.712 43.2896H129.887C131.044 43.2896 132 44.2734 132 45.4644C132 46.6554 131.044 47.6392 129.887 47.6392H117.712Z" fill="#FFD02A"/>
<path d="M59.8062 76.9994C58.9509 77.8797 57.6429 77.8797 56.7876 76.9994C55.9324 76.1191 55.9324 74.7728 56.7876 73.8925L65.3905 65.0378C66.2458 64.1576 67.5538 64.1576 68.4091 65.0378C69.2643 65.9181 69.2643 67.2645 68.4091 68.1447L59.8062 76.9994Z" fill="#FFD02A"/>
<path d="M60.1579 77.3619C59.3027 78.2422 57.9946 78.2422 57.1394 77.3619C56.2841 76.4816 56.2841 75.1353 57.1394 74.255L65.7422 65.4003C66.5975 64.52 67.9055 64.52 68.7608 65.4003C69.6161 66.2806 69.6161 67.6269 68.7608 68.5072L60.1579 77.3619Z" fill="#FFD02A"/>
<path d="M110.367 24.9588C109.512 25.8391 108.204 25.8391 107.348 24.9588C106.493 24.0785 106.493 22.7322 107.348 21.8519L115.951 12.9972C116.807 12.1169 118.115 12.1169 118.97 12.9972C119.825 13.8775 119.825 15.2238 118.97 16.1041L110.367 24.9588Z" fill="#FFD02A"/>
<path d="M110.719 25.3213C109.863 26.2016 108.555 26.2016 107.7 25.3213C106.845 24.441 106.845 23.0946 107.7 22.2144L116.303 13.3597C117.158 12.4794 118.466 12.4794 119.322 13.3597C120.177 14.24 120.177 15.5863 119.322 16.4666L110.719 25.3213Z" fill="#FFD02A"/>
<path d="M118.92 74.255C119.775 75.1353 119.775 76.4816 118.92 77.3619C118.064 78.2422 116.756 78.2422 115.901 77.3619L107.298 68.5072C106.443 67.6269 106.443 66.2806 107.298 65.4003C108.153 64.52 109.461 64.52 110.317 65.4003L118.92 74.255Z" fill="#FFD02A"/>
<path d="M119.322 73.8925C120.177 74.7728 120.177 76.1191 119.322 76.9994C118.466 77.8797 117.158 77.8797 116.303 76.9994L107.7 68.1447C106.845 67.2645 106.845 65.9181 107.7 65.0378C108.555 64.1576 109.863 64.1576 110.719 65.0378L119.322 73.8925Z" fill="#FFD02A"/>
<path d="M68.4091 22.2144C69.2643 23.0946 69.2643 24.441 68.4091 25.3213C67.5538 26.2016 66.2458 26.2016 65.3905 25.3213L56.7876 16.4666C55.9324 15.5863 55.9324 14.24 56.7876 13.3597C57.6429 12.4794 58.9509 12.4794 59.8062 13.3597L68.4091 22.2144Z" fill="#FFD02A"/>
<path d="M68.7608 21.8519C69.6161 22.7322 69.6161 24.0785 68.7608 24.9588C67.9055 25.8391 66.5975 25.8391 65.7422 24.9588L57.1394 16.1041C56.2841 15.2238 56.2841 13.8775 57.1394 12.9972C57.9946 12.1169 59.3027 12.1169 60.1579 12.9972L68.7608 21.8519Z" fill="#FFD02A"/>
<path d="M51.674 86.805C51.2499 85.0378 51.0378 83.1999 51.0378 81.362C51.0378 68.8502 61.2169 58.6711 73.7288 58.6711C82.7062 58.6711 90.4112 63.8313 94.0869 71.395C94.8645 71.3243 95.6421 71.2536 96.4197 71.2536C108.931 71.2536 119.111 81.4327 119.111 93.9445C119.111 106.456 108.931 116.635 96.4197 116.635C87.4423 116.635 65.741 116.635 58.1773 116.635C49.5534 116.635 42.5552 109.637 42.5552 101.013C42.4846 94.7221 46.231 89.2791 51.674 86.805Z" fill="#476472"/>
<path d="M53.0878 101.013C53.0878 94.7221 56.8342 89.2791 62.2772 86.805C61.8531 85.0378 61.641 83.1999 61.641 81.362C61.641 70.6881 69.0633 61.7107 79.0304 59.3073C85.675 60.9331 91.118 65.3864 94.0869 71.3949C94.8645 71.3243 95.6421 71.2536 96.4197 71.2536C108.931 71.2536 119.111 81.4327 119.111 93.9445C119.111 106.456 108.931 116.635 96.4197 116.635C90.3405 116.635 78.2528 116.635 68.7806 116.635C60.0859 116.635 53.0878 109.637 53.0878 101.013Z" fill="#8BABBB"/>
<path d="M53.6888 146.882C53.6888 142.489 61.6759 128.844 61.6759 128.844C61.6759 128.844 69.6629 142.422 69.6629 146.882C69.6629 151.275 66.0687 154.869 61.6759 154.869C57.2164 154.935 53.6888 151.341 53.6888 146.882Z" fill="#476472"/>
<path d="M65.0038 134.901C67.2002 139.094 69.6629 144.419 69.6629 146.882C69.6629 150.143 67.7327 152.872 65.0038 154.137C62.2749 152.872 60.3447 150.077 60.3447 146.882C60.3447 144.419 62.8073 139.161 65.0038 134.901Z" fill="#8BABBB"/>
<path d="M30 135.037C30 130.645 37.9871 117 37.9871 117C37.9871 117 45.9741 130.578 45.9741 135.037C45.9741 139.43 42.38 143.025 37.9871 143.025C33.5276 143.091 30 139.497 30 135.037Z" fill="#476472"/>
<path d="M41.315 123.057C43.5115 127.25 45.9741 132.575 45.9741 135.037C45.9741 138.299 44.0439 141.028 41.315 142.292C38.5861 141.028 36.6559 138.232 36.6559 135.037C36.6559 132.575 39.1186 127.317 41.315 123.057Z" fill="#8BABBB"/>
</svg>
