<svg width="115" height="132" viewBox="0 0 115 132" fill="none" xmlns="http://www.w3.org/2000/svg">
<circle cx="79.9103" cy="34.119" r="34.119" fill="#93A1B6"/>
<ellipse cx="84.297" cy="28.7574" rx="27.7826" ry="26.8078" fill="#B7C5D5"/>
<circle cx="77.9606" cy="24.3707" r="1.94966" fill="#87919F"/>
<circle cx="70.6495" cy="37.5309" r="3.4119" fill="#93A1B6"/>
<ellipse cx="97.4571" cy="12.1854" rx="5.84897" ry="3.4119" transform="rotate(35.6053 97.4571 12.1854)" fill="#93A1B6"/>
<ellipse cx="97.4571" cy="12.1854" rx="5.84897" ry="3.4119" transform="rotate(35.6053 97.4571 12.1854)" fill="url(#paint0_linear_5:1090)"/>
<ellipse rx="4.96387" ry="3.74769" transform="matrix(-0.409491 -0.912314 -0.912314 0.409491 52.0091 28.3581)" fill="#93A1B6"/>
<ellipse rx="4.96387" ry="3.74769" transform="matrix(-0.409491 -0.912314 -0.912314 0.409491 52.0091 28.3581)" fill="url(#paint1_linear_5:1090)"/>
<ellipse cx="71.055" cy="58.82" rx="5.84897" ry="3.4119" transform="rotate(24.0243 71.055 58.82)" fill="#93A1B6"/>
<ellipse cx="71.055" cy="58.82" rx="5.84897" ry="3.4119" transform="rotate(24.0243 71.055 58.82)" fill="url(#paint2_linear_5:1090)"/>
<ellipse cx="98.2015" cy="45.1766" rx="4.52016" ry="3.4119" transform="rotate(-29.8378 98.2015 45.1766)" fill="#93A1B6"/>
<ellipse cx="98.2015" cy="45.1766" rx="4.52016" ry="3.4119" transform="rotate(-29.8378 98.2015 45.1766)" fill="url(#paint3_linear_5:1090)"/>
<ellipse cx="75.3726" cy="8.27979" rx="3.09902" ry="2.3392" transform="rotate(-1.99563 75.3726 8.27979)" fill="#93A1B6"/>
<ellipse cx="75.3726" cy="8.27979" rx="3.09902" ry="2.3392" transform="rotate(-1.99563 75.3726 8.27979)" fill="url(#paint4_linear_5:1090)"/>
<path d="M8.18833 48.6052C7.80752 47.0185 7.61712 45.3683 7.61712 43.7181C7.61712 32.4841 16.7566 23.3446 27.9906 23.3446C36.0511 23.3446 42.9692 27.9778 46.2696 34.769C46.9677 34.7055 47.6659 34.6421 48.364 34.6421C59.598 34.6421 68.7375 43.7816 68.7375 55.0155C68.7375 66.2495 59.598 75.389 48.364 75.389C40.3035 75.389 20.8186 75.389 14.0274 75.389C6.28426 75.389 0.000867064 69.1056 0.000867064 61.3624C-0.0626017 55.7137 3.36471 50.8266 8.18833 48.6052Z" fill="#476472"/>
<path d="M9.52124 61.3624C9.52124 55.7137 12.8851 50.8266 17.7722 48.6052C17.3914 47.0185 17.2009 45.3683 17.2009 43.7181C17.2009 34.1343 23.8652 26.0738 32.8143 23.9158C38.7803 25.3756 43.6674 29.3741 46.3331 34.769C47.0313 34.7055 47.7294 34.642 48.4276 34.642C59.6615 34.642 68.801 43.7815 68.801 55.0155C68.801 66.2495 59.6615 75.389 48.4276 75.389C42.9693 75.389 32.1161 75.389 23.6113 75.389C15.7412 75.389 9.52124 69.1056 9.52124 61.3624Z" fill="#678592"/>
<path d="M46.3965 64.5358C46.0157 62.9491 45.8253 61.2989 45.8253 59.6487C45.8253 48.4147 54.9648 39.2752 66.1987 39.2752C74.2593 39.2752 81.1773 43.9084 84.4777 50.6996C85.1759 50.6361 85.874 50.5727 86.5722 50.5727C97.8062 50.5727 106.946 59.7121 106.946 70.9461C106.946 82.1801 97.8062 91.3196 86.5722 91.3196C78.5117 91.3196 59.0268 91.3196 52.2356 91.3196C44.4924 91.3196 38.209 85.0362 38.209 77.293C38.1455 71.6443 41.5094 66.7572 46.3965 64.5358Z" fill="#476472"/>
<path d="M47.6659 77.293C47.6659 71.6443 51.0297 66.7572 55.9168 64.5358C55.536 62.9491 55.3456 61.2989 55.3456 59.6487C55.3456 50.0649 62.0098 42.0044 70.9589 39.8464C76.925 41.3062 81.8121 45.3048 84.4778 50.6996C85.1759 50.6361 85.8741 50.5727 86.5722 50.5727C97.8062 50.5727 106.946 59.7122 106.946 70.9461C106.946 82.1801 97.8062 91.3196 86.5722 91.3196C81.1139 91.3196 70.2608 91.3196 61.756 91.3196C53.9493 91.3196 47.6659 85.0362 47.6659 77.293Z" fill="#8BABBB"/>
<path d="M58.9799 124.698C58.9799 120.753 66.1512 108.502 66.1512 108.502C66.1512 108.502 73.3225 120.694 73.3225 124.698C73.3225 128.642 70.0954 131.869 66.1512 131.869C62.1472 131.929 58.9799 128.702 58.9799 124.698Z" fill="#476472"/>
<path d="M69.1392 113.941C71.1113 117.706 73.3225 122.487 73.3225 124.698C73.3225 127.626 71.5894 130.076 69.1392 131.212C66.689 130.076 64.9559 127.566 64.9559 124.698C64.9559 122.487 67.1671 117.765 69.1392 113.941Z" fill="#8BABBB"/>
<path d="M37.7104 114.063C37.7104 110.119 44.8818 97.8677 44.8818 97.8677C44.8818 97.8677 52.0531 110.059 52.0531 114.063C52.0531 118.007 48.826 121.234 44.8818 121.234C40.8778 121.294 37.7104 118.067 37.7104 114.063Z" fill="#476472"/>
<path d="M47.8699 103.306C49.842 107.071 52.0532 111.852 52.0532 114.063C52.0532 116.991 50.3201 119.441 47.8699 120.577C45.4197 119.441 43.6866 116.931 43.6866 114.063C43.6866 111.852 45.8978 107.131 47.8699 103.306Z" fill="#8BABBB"/>
<defs>
<linearGradient id="paint0_linear_5:1090" x1="97.4571" y1="8.7735" x2="97.4571" y2="15.5973" gradientUnits="userSpaceOnUse">
<stop stop-color="#4D6181"/>
<stop offset="1" stop-color="#A0A0A0" stop-opacity="0"/>
</linearGradient>
<linearGradient id="paint1_linear_5:1090" x1="4.96387" y1="0" x2="4.96387" y2="7.49538" gradientUnits="userSpaceOnUse">
<stop stop-color="#4D6181"/>
<stop offset="1" stop-color="white" stop-opacity="0"/>
</linearGradient>
<linearGradient id="paint2_linear_5:1090" x1="71.055" y1="55.4081" x2="71.055" y2="62.2319" gradientUnits="userSpaceOnUse">
<stop stop-color="#4D6181"/>
<stop offset="1" stop-color="white" stop-opacity="0"/>
</linearGradient>
<linearGradient id="paint3_linear_5:1090" x1="98.2015" y1="41.7647" x2="98.2015" y2="48.5885" gradientUnits="userSpaceOnUse">
<stop stop-color="#4D6181"/>
<stop offset="1" stop-color="#EAEAEA" stop-opacity="0"/>
</linearGradient>
<linearGradient id="paint4_linear_5:1090" x1="75.3726" y1="5.94059" x2="75.3726" y2="10.619" gradientUnits="userSpaceOnUse">
<stop stop-color="#4D6181"/>
<stop offset="1" stop-color="#EAEAEA" stop-opacity="0"/>
</linearGradient>
</defs>
</svg>
