<svg width="121" height="110" viewBox="0 0 121 110" fill="none" xmlns="http://www.w3.org/2000/svg">
<path d="M48.8867 71H61.0598L71.4427 86.2522H52.7534L57.6943 109.309L37 78.5187H54.114L48.8867 71Z" fill="#FFB72B"/>
<path d="M9.23823 28.4994C8.80859 26.7092 8.59375 24.8475 8.59375 22.9857C8.59375 10.3114 18.9051 0 31.5795 0C40.6735 0 48.4786 5.22727 52.2021 12.8892C52.9898 12.8176 53.7774 12.7459 54.5651 12.7459C67.2395 12.7459 77.5508 23.0573 77.5508 35.7316C77.5508 48.406 67.2395 58.7173 54.5651 58.7173C45.4711 58.7173 23.4879 58.7173 15.826 58.7173C7.09004 58.7173 0.00097823 51.6283 0.00097823 42.8923C-0.0706282 36.5193 3.79614 31.0056 9.23823 28.4994Z" fill="#476472"/>
<path d="M10.7419 42.8923C10.7419 36.5193 14.5371 31.0056 20.0508 28.4994C19.6211 26.7092 19.4064 24.8475 19.4064 22.9857C19.4064 12.1731 26.925 3.07909 37.0215 0.64447C43.7525 2.29142 49.2662 6.80261 52.2737 12.8892C53.0614 12.8176 53.849 12.7459 54.6367 12.7459C67.311 12.7459 77.6224 23.0573 77.6224 35.7316C77.6224 48.406 67.311 58.7173 54.6367 58.7173C48.4785 58.7173 36.2339 58.7173 26.6386 58.7173C17.831 58.7173 10.7419 51.6283 10.7419 42.8923Z" fill="#668592"/>
<path d="M52.3453 46.4726C51.9157 44.6825 51.7008 42.8207 51.7008 40.9589C51.7008 28.2846 62.0121 17.9733 74.6865 17.9733C83.7805 17.9733 91.5856 23.2005 95.3092 30.8624C96.0969 30.7908 96.8845 30.7192 97.6721 30.7192C110.346 30.7192 120.658 41.0305 120.658 53.7049C120.658 66.3792 110.346 76.6906 97.6721 76.6906C88.5781 76.6906 66.595 76.6906 58.9331 76.6906C50.1971 76.6906 43.1081 69.6015 43.1081 60.8655C43.0364 54.4925 46.8316 48.9789 52.3453 46.4726Z" fill="#476472"/>
<path d="M53.7775 60.8655C53.7775 54.4925 57.5726 48.9788 63.0863 46.4726C62.6567 44.6824 62.4418 42.8207 62.4418 40.9589C62.4418 30.1463 69.9605 21.0523 80.057 18.6177C86.788 20.2646 92.3017 24.7759 95.3092 30.8624C96.0969 30.7908 96.8845 30.7192 97.6722 30.7192C110.347 30.7192 120.658 41.0305 120.658 53.7048C120.658 66.3792 110.347 76.6905 97.6722 76.6905C91.514 76.6905 79.2693 76.6905 69.6741 76.6905C60.8665 76.6905 53.7775 69.6015 53.7775 60.8655Z" fill="#8BABBB"/>
</svg>
