<svg width="76" height="83" viewBox="0 0 76 83" fill="none" xmlns="http://www.w3.org/2000/svg">
<path d="M36.3978 0.257385C35.6359 0.646448 35.0037 1.29489 34.6794 2.00817C34.4039 2.59176 34.3714 3.12673 34.3714 7.43884V12.2048L31.0158 8.86539C28.2599 6.14196 27.5304 5.49352 26.9955 5.34763C24.5314 4.68298 22.2132 6.33649 22.2132 8.78434C22.2132 10.2109 22.6347 10.7297 28.6814 16.7601L34.3714 22.434V25.6761V28.9345L31.7453 30.4422C30.2863 31.2851 29.038 31.966 28.9408 31.966C28.8597 31.966 27.5304 31.2527 26.0066 30.3773L23.2345 28.7886L21.3216 21.6396C20.2679 17.7166 19.3115 14.1502 19.1818 13.7125C18.7279 12.1724 17.3824 11.1511 15.7613 11.1349C13.6701 11.1187 12.1625 12.5615 12.1625 14.6203C12.1625 15.1066 12.5839 17.0033 13.2162 19.4025C13.7998 21.5748 14.2699 23.4228 14.2375 23.4877C14.205 23.5525 12.4218 22.5798 10.2658 21.3478C6.03472 18.9162 5.49976 18.7216 4.05698 19.1107C3.06812 19.3701 1.88472 20.5535 1.62534 21.5424C1.23628 22.9689 1.78745 24.59 2.92222 25.4168C3.26265 25.6599 5.1269 26.7623 7.05601 27.8646C8.9689 28.9507 10.5414 29.891 10.5414 29.9558C10.5414 30.0045 8.77437 30.5232 6.6021 31.0906C2.19273 32.2578 1.47944 32.5334 0.831006 33.3277C-1.06567 35.6297 0.53921 39.2123 3.4896 39.2123C3.97593 39.2123 7.08843 38.4666 11.8707 37.1697C16.0531 36.0511 19.5709 35.1595 19.6843 35.192C19.7978 35.2244 21.0947 35.9377 22.5861 36.7806L25.2933 38.3207L25.2609 41.4656L25.2123 44.5943L22.4564 46.1992C20.9488 47.0746 19.6357 47.8041 19.5384 47.8041C19.4574 47.8041 15.972 46.8963 11.822 45.7777C7.67202 44.6591 3.99214 43.7513 3.65171 43.7513C0.571631 43.7513 -1.11431 47.2691 0.831006 49.6359C1.47944 50.4302 2.19273 50.7058 6.6021 51.873C8.77437 52.4404 10.5414 52.9429 10.5414 52.9916C10.5414 53.0402 8.9689 53.9966 7.0398 55.099C5.11069 56.2013 3.24644 57.3199 2.90601 57.5631C1.81987 58.3412 1.23628 60.0271 1.59292 61.324C2.12788 63.2207 4.08941 64.3716 5.96987 63.8691C6.35894 63.7718 8.36909 62.7019 10.4279 61.5185C12.5029 60.3189 14.205 59.3949 14.2375 59.4759C14.2699 59.5408 13.7998 61.3888 13.2162 63.5611C12.5839 65.9603 12.1625 67.857 12.1625 68.3433C12.1625 71.6504 16.2476 73.1093 18.4523 70.5966C19.0521 69.9158 18.89 70.4021 21.3216 61.2916L23.2507 54.1263L26.039 52.5052C27.5791 51.6136 28.8921 50.8841 28.9732 50.8841C29.038 50.9004 30.2701 51.565 31.6966 52.3918L34.2904 53.8994L34.339 57.2064L34.3714 60.5134L28.5517 66.3656C22.1808 72.7689 22.0835 72.8824 22.2457 74.5359C22.4726 76.7892 24.6449 78.232 26.9144 77.6322C27.5466 77.4701 28.0816 77.0162 31.0158 74.0982L34.3714 70.7588V75.4923C34.3714 80.6474 34.4201 80.9554 35.3117 81.8957C36.6896 83.3547 39.2023 83.3547 40.564 81.9119C41.4556 80.9554 41.5042 80.6474 41.5042 75.4923V70.7588L44.8761 74.0982C47.7941 77.0162 48.3291 77.4701 48.9613 77.6322C51.2308 78.232 53.4031 76.7892 53.63 74.5359C53.7921 72.8824 53.6949 72.7689 47.324 66.3656L41.5042 60.5134L41.5367 57.2064L41.5853 53.8994L44.1791 52.3918C45.6056 51.565 46.8376 50.9004 46.9025 50.8841C46.9835 50.8841 48.2966 51.6136 49.8367 52.5052L52.6412 54.1263L54.7 61.859C55.8509 66.1224 56.8722 69.7861 56.9857 70.0131C57.2613 70.548 57.9908 71.2127 58.6878 71.5531C59.9685 72.2177 62.1084 71.7314 62.9351 70.6129C64.005 69.1701 63.9726 68.5054 62.6595 63.5611C62.0759 61.3888 61.6058 59.5408 61.6382 59.4759C61.6707 59.3949 63.3242 60.2865 65.3343 61.4537C69.1439 63.6584 69.8896 64.015 70.7488 64.015C72.0295 64.015 73.4236 63.1558 74.0558 62.0049C74.4611 61.2429 74.4125 59.5732 73.9585 58.6978C73.4884 57.8224 73.0832 57.5306 68.8359 55.099C66.9068 53.9966 65.3343 53.0402 65.3343 52.9916C65.3343 52.9429 67.1013 52.4404 69.2736 51.873C71.4296 51.3056 73.5046 50.6896 73.8937 50.5113C76.066 49.5062 76.5361 46.5234 74.8015 44.7726C74.0882 44.0593 73.3101 43.7513 72.2402 43.7513C71.8835 43.7513 68.155 44.6754 63.9402 45.7939L56.2886 47.8527L53.4841 46.2154L50.6634 44.5943L50.6148 41.4656L50.5824 38.3207L53.2896 36.7806C54.781 35.9377 56.0779 35.2244 56.1914 35.192C56.3048 35.1595 59.8226 36.0511 64.005 37.1697C68.7873 38.4666 71.8998 39.2123 72.3861 39.2123C75.3365 39.2123 76.9414 35.6297 75.0447 33.3277C74.3962 32.5334 73.683 32.2578 69.2736 31.0906C67.1013 30.5232 65.3343 30.0045 65.3343 29.9558C65.3343 29.891 66.9068 28.9507 68.8197 27.8646C70.7488 26.7623 72.613 25.6599 72.9535 25.4168C74.0882 24.59 74.6394 22.9689 74.2503 21.5424C73.991 20.5535 72.8076 19.3701 71.8187 19.1107C70.3759 18.7216 69.841 18.9162 65.6099 21.3478C63.4539 22.5798 61.6707 23.5525 61.6382 23.4877C61.6058 23.4228 62.0759 21.5748 62.6595 19.4025C64.005 14.3123 64.0212 13.4369 62.7082 12.14C61.9949 11.4267 61.2167 11.1187 60.1144 11.1349C58.4933 11.1511 57.1478 12.1724 56.6939 13.7125C56.5642 14.1502 55.6078 17.7166 54.5541 21.6396L52.6412 28.7886L49.8691 30.3773C48.3453 31.2527 47.016 31.966 46.9349 31.966C46.8376 31.966 45.5894 31.2851 44.1304 30.4422L41.5042 28.9345V25.6761V22.434L47.2591 16.6791C53.5976 10.3406 53.7597 10.1299 53.63 8.49255C53.4355 6.19059 51.2632 4.7154 48.9613 5.33141C48.3291 5.49352 47.7941 5.94743 44.8761 8.86539L41.5042 12.2048V7.43884C41.5042 3.12673 41.4718 2.59176 41.1962 2.00817C40.8234 1.21384 40.1587 0.565399 39.3644 0.24118C38.5863 -0.0830383 37.03 -0.0830444 36.3978 0.257385ZM40.7423 36.8617L43.2874 38.3207L43.255 41.4494L43.2064 44.5943L40.5802 46.1019L37.9378 47.6257L35.3117 46.1019L32.6693 44.5943L32.6369 41.4494L32.5882 38.3207L35.1496 36.8293C36.5437 36.0187 37.8082 35.3541 37.9541 35.3703C38.0837 35.3865 39.3482 36.0511 40.7423 36.8617Z" fill="#DBEDF3"/>
</svg>
