<svg width="32" height="32" viewBox="0 0 32 32" fill="none" xmlns="http://www.w3.org/2000/svg">
<rect width="32" height="32" rx="16" fill="#404B69"/>
<path d="M15.708 20.4151C18.4205 20.4151 20.6193 18.2886 20.6193 15.6654C20.6193 13.0422 18.4205 10.9157 15.708 10.9157C12.9956 10.9157 10.7968 13.0422 10.7968 15.6654C10.7968 18.2886 12.9956 20.4151 15.708 20.4151Z" fill="#DBEDF3"/>
<path d="M16.2803 10.9489C18.7187 11.2257 20.6191 13.2296 20.6191 15.6654C20.6191 18.1011 18.7187 20.105 16.2803 20.3818C13.8418 20.105 11.9414 18.1011 11.9414 15.6654C11.9529 13.2296 13.8418 11.2257 16.2803 10.9489Z" fill="#DBEDF3"/>
<path d="M18.9934 13.5729C18.9934 13.5729 18.9934 13.5618 18.9934 13.5729C19.2567 14.0047 19.4284 14.5029 19.4971 15.0122C19.52 15.1672 19.52 15.3222 19.5315 15.4882C19.5315 15.9754 19.4284 16.4515 19.2567 16.8943C19.4284 16.4515 19.52 15.9754 19.5315 15.4993C19.52 14.8018 19.3369 14.1486 18.9934 13.5729Z" fill="#DBEDF3"/>
<path d="M18.7645 17.7579C18.9477 17.5143 19.0965 17.2486 19.2225 16.9829C19.0965 17.2486 18.9477 17.5143 18.7645 17.7579Z" fill="#DBEDF3"/>
<path d="M15.5706 6.465C15.5706 6.21036 15.7881 6 16.0514 6C16.3147 6 16.5322 6.21036 16.5322 6.465V9.1443C16.5322 9.39894 16.3147 9.6093 16.0514 9.6093C15.7881 9.6093 15.5706 9.39894 15.5706 9.1443V6.465Z" fill="#DBEDF3"/>
<path d="M15.4565 6.465C15.4565 6.21036 15.6741 6 15.9374 6C16.2007 6 16.4182 6.21036 16.4182 6.465V9.1443C16.4182 9.39894 16.2007 9.6093 15.9374 9.6093C15.6741 9.6093 15.4565 9.39894 15.4565 9.1443V6.465Z" fill="#DBEDF3"/>
<path d="M15.5706 22.1865C15.5706 21.9319 15.7881 21.7215 16.0514 21.7215C16.3147 21.7215 16.5322 21.9319 16.5322 22.1865V24.8658C16.5322 25.1204 16.3147 25.3308 16.0514 25.3308C15.7881 25.3308 15.5706 25.1204 15.5706 24.8658V22.1865Z" fill="#DBEDF3"/>
<path d="M15.4563 22.1865C15.4563 21.9319 15.6738 21.7215 15.9371 21.7215C16.2004 21.7215 16.4179 21.9319 16.4179 22.1865V24.8658C16.4179 25.1204 16.2004 25.3308 15.9371 25.3308C15.6738 25.3308 15.4563 25.1204 15.4563 24.8658V22.1865Z" fill="#DBEDF3"/>
<path d="M6.48082 16.075C6.21752 16.075 6 15.8647 6 15.61C6 15.3554 6.21752 15.145 6.48082 15.145H9.25129C9.5146 15.145 9.73211 15.3554 9.73211 15.61C9.73211 15.8647 9.5146 16.075 9.25129 16.075H6.48082Z" fill="#DBEDF3"/>
<path d="M6.48082 16.1857C6.21752 16.1857 6 15.9754 6 15.7207C6 15.4661 6.21752 15.2557 6.48082 15.2557H9.25129C9.5146 15.2557 9.73211 15.4661 9.73211 15.7207C9.73211 15.9754 9.5146 16.1857 9.25129 16.1857H6.48082Z" fill="#DBEDF3"/>
<path d="M22.7486 16.075C22.4853 16.075 22.2678 15.8647 22.2678 15.61C22.2678 15.3554 22.4853 15.145 22.7486 15.145H25.5191C25.7824 15.145 25.9999 15.3554 25.9999 15.61C25.9999 15.8647 25.7824 16.075 25.5191 16.075H22.7486Z" fill="#DBEDF3"/>
<path d="M22.7486 16.1857C22.4853 16.1857 22.2678 15.9754 22.2678 15.7207C22.2678 15.4661 22.4853 15.2557 22.7486 15.2557H25.5191C25.7824 15.2557 25.9999 15.4661 25.9999 15.7207C25.9999 15.9754 25.7824 16.1857 25.5191 16.1857H22.7486Z" fill="#DBEDF3"/>
<path d="M9.57163 22.4633C9.37701 22.6515 9.07935 22.6515 8.88473 22.4633C8.69011 22.2751 8.69011 21.9872 8.88473 21.799L10.8424 19.9058C11.037 19.7176 11.3346 19.7176 11.5293 19.9058C11.7239 20.094 11.7239 20.3819 11.5293 20.5701L9.57163 22.4633Z" fill="#DBEDF3"/>
<path d="M9.65158 22.5407C9.45696 22.7289 9.15931 22.7289 8.96469 22.5407C8.77007 22.3525 8.77007 22.0646 8.96469 21.8764L10.9223 19.9832C11.1169 19.795 11.4146 19.795 11.6092 19.9832C11.8038 20.1714 11.8038 20.4593 11.6092 20.6475L9.65158 22.5407Z" fill="#DBEDF3"/>
<path d="M21.0772 11.3365C20.8826 11.5247 20.585 11.5247 20.3903 11.3365C20.1957 11.1482 20.1957 10.8604 20.3903 10.6722L22.348 8.77895C22.5426 8.59073 22.8403 8.59073 23.0349 8.77895C23.2295 8.96716 23.2295 9.25502 23.0349 9.44324L21.0772 11.3365Z" fill="#DBEDF3"/>
<path d="M21.1573 11.4139C20.9627 11.6021 20.665 11.6021 20.4704 11.4139C20.2758 11.2257 20.2758 10.9378 20.4704 10.7496L22.4281 8.8564C22.6227 8.66819 22.9203 8.66819 23.115 8.8564C23.3096 9.04462 23.3096 9.33247 23.115 9.52069L21.1573 11.4139Z" fill="#DBEDF3"/>
<path d="M23.0234 21.8764C23.218 22.0646 23.218 22.3525 23.0234 22.5407C22.8288 22.7289 22.5311 22.7289 22.3365 22.5407L20.3789 20.6475C20.1843 20.4593 20.1843 20.1714 20.3789 19.9832C20.5735 19.795 20.8711 19.795 21.0658 19.9832L23.0234 21.8764Z" fill="#DBEDF3"/>
<path d="M23.1148 21.799C23.3095 21.9872 23.3095 22.275 23.1148 22.4633C22.9202 22.6515 22.6226 22.6515 22.4279 22.4633L20.4703 20.57C20.2757 20.3818 20.2757 20.094 20.4703 19.9057C20.6649 19.7175 20.9626 19.7175 21.1572 19.9057L23.1148 21.799Z" fill="#DBEDF3"/>
<path d="M11.5293 10.7496C11.7239 10.9378 11.7239 11.2257 11.5293 11.4139C11.3346 11.6021 11.037 11.6021 10.8424 11.4139L8.88473 9.52069C8.69011 9.33247 8.69011 9.04462 8.88473 8.8564C9.07935 8.66819 9.37701 8.66819 9.57163 8.8564L11.5293 10.7496Z" fill="#DBEDF3"/>
<path d="M11.6093 10.6722C11.804 10.8604 11.804 11.1482 11.6093 11.3365C11.4147 11.5247 11.1171 11.5247 10.9225 11.3365L8.96481 9.44324C8.77019 9.25502 8.77019 8.96716 8.96481 8.77895C9.15943 8.59073 9.45708 8.59073 9.6517 8.77895L11.6093 10.6722Z" fill="#DBEDF3"/>
</svg>
