<svg width="100%" height="100%" id="svg" viewBox="0 0 1440 500" xmlns="http://www.w3.org/2000/svg" class="transition duration-300 ease-in-out delay-150"><defs><linearGradient id="gradient" x1="4%" y1="30%" x2="96%" y2="70%"><stop offset="5%" stop-color="#404b6966"></stop><stop offset="95%" stop-color="#32ded466"></stop></linearGradient></defs><path d="M 0,500 C 0,500 0,125 0,125 C 50.68361387839231,125.4836825833047 101.36722775678462,125.9673651666094 176,132 C 250.63277224321538,138.0326348333906 349.2147028512539,149.61422191686708 422,141 C 494.7852971487461,132.38577808313292 541.7739608381999,103.57574716592232 597,107 C 652.2260391618001,110.42425283407768 715.6894537959464,146.08278941944351 784,159 C 852.3105462040536,171.91721058055649 925.4682239780143,162.09309515630366 1010,146 C 1094.5317760219857,129.90690484369634 1190.437650291996,107.54482995534181 1264,103 C 1337.562349708004,98.45517004465819 1388.781174854002,111.7275850223291 1440,125 C 1440,125 1440,500 1440,500 Z" stroke="none" stroke-width="0" fill="url(#gradient)" class="transition-all duration-300 ease-in-out delay-150 path-0"></path><defs><linearGradient id="gradient" x1="4%" y1="30%" x2="96%" y2="70%"><stop offset="5%" stop-color="#404b6988"></stop><stop offset="95%" stop-color="#32ded488"></stop></linearGradient></defs><path d="M 0,500 C 0,500 0,250 0,250 C 54.49124012366886,270.5956715905187 108.98248024733772,291.19134318103744 185,286 C 261.0175197526623,280.80865681896256 358.56131913431807,249.83029886636893 444,236 C 529.4386808656819,222.16970113363107 602.77224321539,225.48746135348676 655,227 C 707.22775678461,228.51253864651324 738.3497080041222,228.21985571968395 798,224 C 857.6502919958778,219.78014428031605 945.8289247681209,211.6331157677774 1014,217 C 1082.171075231879,222.3668842322226 1130.334592923394,241.24768120920646 1198,249 C 1265.665407076606,256.75231879079354 1352.8327035383031,253.37615939539677 1440,250 C 1440,250 1440,500 1440,500 Z" stroke="none" stroke-width="0" fill="url(#gradient)" class="transition-all duration-300 ease-in-out delay-150 path-1"></path><defs><linearGradient id="gradient" x1="4%" y1="30%" x2="96%" y2="70%"><stop offset="5%" stop-color="#404b69ff"></stop><stop offset="95%" stop-color="#32ded4ff"></stop></linearGradient></defs><path d="M 0,500 C 0,500 0,375 0,375 C 52.63620748883545,376.6049467536929 105.2724149776709,378.2098935073858 183,369 C 260.7275850223291,359.7901064926142 363.54654757815183,339.76537272414976 430,348 C 496.45345242184817,356.23462727585024 526.5413947097217,392.7286155960151 589,399 C 651.4586052902783,405.2713844039849 746.2878735829613,381.3201648917897 818,381 C 889.7121264170387,380.6798351082103 938.3071109584334,403.99072483682585 1012,398 C 1085.6928890415666,392.00927516317415 1184.4836825833047,356.71693576090695 1260,348 C 1335.5163174166953,339.28306423909305 1387.7581587083478,357.1415321195465 1440,375 C 1440,375 1440,500 1440,500 Z" stroke="none" stroke-width="0" fill="url(#gradient)" class="transition-all duration-300 ease-in-out delay-150 path-2"></path></svg>