<svg width="100%" height="100%" id="svg" viewBox="0 0 1440 500" xmlns="http://www.w3.org/2000/svg" class="transition duration-300 ease-in-out delay-150"><path d="M 0,500 C 0,500 0,125 0,125 C 57.339745791824114,117.40742013053934 114.67949158364823,109.81484026107867 185,101 C 255.32050841635177,92.18515973892133 338.6217794572312,82.14805908622465 403,97 C 467.3782205427688,111.85194091377535 512.8333905874271,151.59292339402268 583,163 C 653.1666094125729,174.40707660597732 748.0446581930609,157.48024733768466 831,146 C 913.9553418069391,134.51975266231534 984.9879766403296,128.48608725523874 1050,117 C 1115.0120233596704,105.51391274476126 1174.00343524562,88.57540364136035 1238,89 C 1301.99656475438,89.42459635863965 1370.99828237719,107.21229817931982 1440,125 C 1440,125 1440,500 1440,500 Z" stroke="none" stroke-width="0" fill="#404b6966" class="transition-all duration-300 ease-in-out delay-150 path-0"></path><path d="M 0,500 C 0,500 0,250 0,250 C 47.106149089659894,279.5953280659567 94.21229817931979,309.19065613191344 168,295 C 241.7877018206802,280.80934386808656 342.25695637238067,222.832703538303 420,204 C 497.74304362761933,185.167296461697 552.7598763311577,205.47852971487464 618,218 C 683.2401236688423,230.52147028512536 758.7035383029887,235.25317760219855 821,242 C 883.2964616970113,248.74682239780145 932.4259704568876,257.50875987633117 992,263 C 1051.5740295431124,268.49124012366883 1121.5925798694607,270.71178289247683 1198,268 C 1274.4074201305393,265.28821710752317 1357.2037100652697,257.6441085537616 1440,250 C 1440,250 1440,500 1440,500 Z" stroke="none" stroke-width="0" fill="#404b6988" class="transition-all duration-300 ease-in-out delay-150 path-1"></path><path d="M 0,500 C 0,500 0,375 0,375 C 85.52731020267947,389.8594984541395 171.05462040535895,404.71899690827894 235,395 C 298.94537959464105,385.28100309172106 341.3088285812436,350.9835108210237 407,340 C 472.6911714187564,329.0164891789763 561.7100652696669,341.34695980762626 641,344 C 720.2899347303331,346.65304019237374 789.8509103400893,339.6286499484714 851,345 C 912.1490896599107,350.3713500515286 964.8862933699761,368.1384403984885 1030,380 C 1095.113706630024,391.8615596015115 1172.6039161800068,397.8175884575747 1243,396 C 1313.3960838199932,394.1824115424253 1376.6980419099966,384.5912057712127 1440,375 C 1440,375 1440,500 1440,500 Z" stroke="none" stroke-width="0" fill="#404b69ff" class="transition-all duration-300 ease-in-out delay-150 path-2"></path></svg>